<mxfile host="app.diagrams.net" modified="2023-04-27T06:35:00.922Z" agent="Mozilla/5.0 (Windows NT 10.0; Win64; x64) AppleWebKit/537.36 (KHTML, like Gecko) Chrome/112.0.0.0 Safari/537.36" version="21.2.3" etag="g1iEP91-7zPxc4v9JVdq" type="github">
  <diagram name="第 1 页" id="fNLd46tm18DRaLB0Bsyl">
    <mxGraphModel>
      <root>
        <mxCell id="0" />
        <mxCell id="1" parent="0" />
      </root>
    </mxGraphModel>
  </diagram>
</mxfile>
